<svg width="294" height="59" viewBox="0 0 294 59" fill="none" xmlns="http://www.w3.org/2000/svg">
<rect width="294" height="59" rx="10" fill="white"/>
<path d="M44.3607 15H32.6393C27.8756 15 24 18.8756 24 23.6393V35.3607C24 40.1244 27.8756 44 32.6393 44H44.3607C49.1244 44 53 40.1244 53 35.3607V23.6393C52.9999 18.8756 49.1244 15 44.3607 15ZM50.0826 35.3607C50.0826 38.5208 47.5208 41.0826 44.3607 41.0826H32.6393C29.4792 41.0826 26.9174 38.5208 26.9174 35.3607V23.6393C26.9174 20.4791 29.4792 17.9174 32.6393 17.9174H44.3607C47.5208 17.9174 50.0826 20.4791 50.0826 23.6393V35.3607Z" fill="#0059AE"/>
<path d="M38.5 21.9996C34.3643 21.9996 30.9996 25.3643 30.9996 29.4999C30.9996 33.6356 34.3643 37.0004 38.5 37.0004C42.6357 37.0004 46.0004 33.6357 46.0004 29.4999C46.0004 25.3642 42.6357 21.9996 38.5 21.9996ZM38.5 34.083C35.9688 34.083 33.917 32.0312 33.917 29.5C33.917 26.9688 35.9689 24.917 38.5 24.917C41.0312 24.917 43.083 26.9688 43.083 29.5C43.083 32.0311 41.0311 34.083 38.5 34.083Z" fill="#0059AE"/>
<path d="M46.0147 23.8532C47.0073 23.8532 47.812 23.0486 47.812 22.056C47.812 21.0634 47.0073 20.2588 46.0147 20.2588C45.0222 20.2588 44.2175 21.0634 44.2175 22.056C44.2175 23.0486 45.0222 23.8532 46.0147 23.8532Z" fill="#0059AE"/>
<path d="M74.1721 35.192C77.3721 35.192 78.9241 33.592 78.9241 31.72C78.9241 27.608 72.4121 29.032 72.4121 26.968C72.4121 26.264 73.0041 25.688 74.5401 25.688C75.5321 25.688 76.6041 25.976 77.6441 26.568L78.4441 24.6C77.4041 23.944 75.9641 23.608 74.5561 23.608C71.3721 23.608 69.8361 25.192 69.8361 27.096C69.8361 31.256 76.3481 29.816 76.3481 31.912C76.3481 32.6 75.7241 33.112 74.1881 33.112C72.8441 33.112 71.4361 32.632 70.4921 31.944L69.6121 33.896C70.6041 34.664 72.3961 35.192 74.1721 35.192ZM81.7672 25.192C82.6952 25.192 83.3192 24.584 83.3192 23.752C83.3192 22.984 82.6952 22.408 81.7672 22.408C80.8392 22.408 80.2152 23.016 80.2152 23.8C80.2152 24.584 80.8392 25.192 81.7672 25.192ZM80.5192 35H83.0152V26.392H80.5192V35ZM91.8437 26.392V27.496C91.1877 26.664 90.1957 26.264 88.9957 26.264C86.6117 26.264 84.6917 27.912 84.6917 30.424C84.6917 32.936 86.6117 34.584 88.9957 34.584C90.1157 34.584 91.0597 34.232 91.7157 33.512V33.88C91.7157 35.432 90.9477 36.232 89.1877 36.232C88.0837 36.232 86.8837 35.848 86.1477 35.256L85.1557 37.048C86.1637 37.832 87.7477 38.232 89.3797 38.232C92.4837 38.232 94.2117 36.76 94.2117 33.56V26.392H91.8437ZM89.4917 32.536C88.1797 32.536 87.2197 31.688 87.2197 30.424C87.2197 29.16 88.1797 28.312 89.4917 28.312C90.8037 28.312 91.7477 29.16 91.7477 30.424C91.7477 31.688 90.8037 32.536 89.4917 32.536ZM100.007 26.264C98.6308 26.264 97.2388 26.632 96.2948 27.304L97.1908 29.048C97.8148 28.552 98.7588 28.248 99.6708 28.248C101.015 28.248 101.655 28.872 101.655 29.944H99.6708C97.0468 29.944 95.9748 31 95.9748 32.52C95.9748 34.008 97.1748 35.128 99.1908 35.128C100.455 35.128 101.351 34.712 101.815 33.928V35H104.151V30.088C104.151 27.48 102.631 26.264 100.007 26.264ZM99.8148 33.448C98.9348 33.448 98.4068 33.032 98.4068 32.408C98.4068 31.832 98.7748 31.4 99.9428 31.4H101.655V32.28C101.367 33.064 100.647 33.448 99.8148 33.448ZM115.037 35.128C117.773 35.128 119.757 33.288 119.757 30.696C119.757 28.104 117.773 26.264 115.037 26.264C112.301 26.264 110.301 28.104 110.301 30.696C110.301 33.288 112.301 35.128 115.037 35.128ZM115.037 33.08C113.789 33.08 112.829 32.184 112.829 30.696C112.829 29.208 113.789 28.312 115.037 28.312C116.285 28.312 117.229 29.208 117.229 30.696C117.229 32.184 116.285 33.08 115.037 33.08ZM131.189 26.264C130.021 26.264 129.013 26.664 128.341 27.4V26.392H125.957V35H128.453V30.744C128.453 29.16 129.317 28.424 130.517 28.424C131.621 28.424 132.261 29.064 132.261 30.456V35H134.757V30.072C134.757 27.448 133.221 26.264 131.189 26.264ZM141.209 35.128C143.945 35.128 145.929 33.288 145.929 30.696C145.929 28.104 143.945 26.264 141.209 26.264C138.473 26.264 136.473 28.104 136.473 30.696C136.473 33.288 138.473 35.128 141.209 35.128ZM141.209 33.08C139.961 33.08 139.001 32.184 139.001 30.696C139.001 29.208 139.961 28.312 141.209 28.312C142.457 28.312 143.401 29.208 143.401 30.696C143.401 32.184 142.457 33.08 141.209 33.08ZM150.493 35.128C153.069 35.128 154.557 33.992 154.557 32.392C154.557 29 149.357 30.424 149.357 28.952C149.357 28.504 149.837 28.152 150.957 28.152C151.741 28.152 152.589 28.312 153.437 28.792L154.269 27.016C153.453 26.536 152.141 26.264 150.957 26.264C148.445 26.264 146.973 27.416 146.973 29.048C146.973 32.488 152.173 31.048 152.173 32.456C152.173 32.936 151.741 33.24 150.589 33.24C149.533 33.24 148.365 32.904 147.597 32.408L146.765 34.2C147.565 34.728 149.037 35.128 150.493 35.128ZM158.993 35.128C161.569 35.128 163.057 33.992 163.057 32.392C163.057 29 157.857 30.424 157.857 28.952C157.857 28.504 158.337 28.152 159.457 28.152C160.241 28.152 161.089 28.312 161.937 28.792L162.769 27.016C161.953 26.536 160.641 26.264 159.457 26.264C156.945 26.264 155.473 27.416 155.473 29.048C155.473 32.488 160.673 31.048 160.673 32.456C160.673 32.936 160.241 33.24 159.089 33.24C158.033 33.24 156.865 32.904 156.097 32.408L155.265 34.2C156.065 34.728 157.537 35.128 158.993 35.128ZM168.693 35.128C171.429 35.128 173.413 33.288 173.413 30.696C173.413 28.104 171.429 26.264 168.693 26.264C165.957 26.264 163.957 28.104 163.957 30.696C163.957 33.288 165.957 35.128 168.693 35.128ZM168.693 33.08C167.445 33.08 166.485 32.184 166.485 30.696C166.485 29.208 167.445 28.312 168.693 28.312C169.941 28.312 170.885 29.208 170.885 30.696C170.885 32.184 169.941 33.08 168.693 33.08ZM179.789 35H182.381V23.8H179.789V35ZM190.095 26.264C188.927 26.264 187.919 26.664 187.247 27.4V26.392H184.863V35H187.359V30.744C187.359 29.16 188.223 28.424 189.423 28.424C190.527 28.424 191.167 29.064 191.167 30.456V35H193.663V30.072C193.663 27.448 192.127 26.264 190.095 26.264ZM198.821 35.128C201.397 35.128 202.885 33.992 202.885 32.392C202.885 29 197.685 30.424 197.685 28.952C197.685 28.504 198.165 28.152 199.285 28.152C200.069 28.152 200.917 28.312 201.765 28.792L202.597 27.016C201.781 26.536 200.469 26.264 199.285 26.264C196.773 26.264 195.301 27.416 195.301 29.048C195.301 32.488 200.501 31.048 200.501 32.456C200.501 32.936 200.069 33.24 198.917 33.24C197.861 33.24 196.693 32.904 195.925 32.408L195.093 34.2C195.893 34.728 197.365 35.128 198.821 35.128ZM209.305 32.824C209.033 33.032 208.665 33.144 208.297 33.144C207.625 33.144 207.225 32.744 207.225 32.008V28.504H209.369V26.584H207.225V24.488H204.729V26.584H203.401V28.504H204.729V32.04C204.729 34.088 205.913 35.128 207.945 35.128C208.713 35.128 209.465 34.952 209.977 34.584L209.305 32.824ZM214.851 26.264C213.475 26.264 212.083 26.632 211.139 27.304L212.035 29.048C212.659 28.552 213.603 28.248 214.515 28.248C215.859 28.248 216.499 28.872 216.499 29.944H214.515C211.891 29.944 210.819 31 210.819 32.52C210.819 34.008 212.019 35.128 214.035 35.128C215.299 35.128 216.195 34.712 216.659 33.928V35H218.995V30.088C218.995 27.48 217.475 26.264 214.851 26.264ZM214.659 33.448C213.779 33.448 213.251 33.032 213.251 32.408C213.251 31.832 213.619 31.4 214.787 31.4H216.499V32.28C216.211 33.064 215.491 33.448 214.659 33.448ZM227.859 26.392V27.496C227.203 26.664 226.211 26.264 225.011 26.264C222.627 26.264 220.707 27.912 220.707 30.424C220.707 32.936 222.627 34.584 225.011 34.584C226.131 34.584 227.075 34.232 227.731 33.512V33.88C227.731 35.432 226.963 36.232 225.203 36.232C224.099 36.232 222.899 35.848 222.163 35.256L221.171 37.048C222.179 37.832 223.763 38.232 225.395 38.232C228.499 38.232 230.227 36.76 230.227 33.56V26.392H227.859ZM225.507 32.536C224.195 32.536 223.235 31.688 223.235 30.424C223.235 29.16 224.195 28.312 225.507 28.312C226.819 28.312 227.763 29.16 227.763 30.424C227.763 31.688 226.819 32.536 225.507 32.536ZM234.934 27.528V26.392H232.55V35H235.046V30.936C235.046 29.288 235.958 28.536 237.334 28.536C237.526 28.536 237.686 28.552 237.894 28.568V26.264C236.566 26.264 235.542 26.696 234.934 27.528ZM242.804 26.264C241.428 26.264 240.036 26.632 239.092 27.304L239.988 29.048C240.612 28.552 241.556 28.248 242.468 28.248C243.812 28.248 244.452 28.872 244.452 29.944H242.468C239.844 29.944 238.772 31 238.772 32.52C238.772 34.008 239.972 35.128 241.988 35.128C243.252 35.128 244.148 34.712 244.612 33.928V35H246.948V30.088C246.948 27.48 245.428 26.264 242.804 26.264ZM242.612 33.448C241.732 33.448 241.204 33.032 241.204 32.408C241.204 31.832 241.572 31.4 242.74 31.4H244.452V32.28C244.164 33.064 243.444 33.448 242.612 33.448ZM260.231 26.264C258.935 26.264 257.815 26.792 257.127 27.672C256.519 26.728 255.495 26.264 254.295 26.264C253.191 26.264 252.231 26.648 251.591 27.384V26.392H249.207V35H251.703V30.68C251.703 29.144 252.487 28.424 253.591 28.424C254.631 28.424 255.223 29.064 255.223 30.456V35H257.719V30.68C257.719 29.144 258.503 28.424 259.623 28.424C260.631 28.424 261.255 29.064 261.255 30.456V35H263.751V30.072C263.751 27.448 262.279 26.264 260.231 26.264Z" fill="#0059AE"/>
</svg>
