<svg width="351" height="69" viewBox="0 0 351 69" fill="none" xmlns="http://www.w3.org/2000/svg">
<path d="M58.768 18L56.032 14.16C57.664 13.632 58.592 12.4 58.592 10.64C58.592 8.24 56.864 6.8 54.016 6.8H49.824V18H51.008V14.448H54.016C54.336 14.448 54.624 14.432 54.912 14.4L57.472 18H58.768ZM53.984 13.44H51.008V7.824H53.984C56.224 7.824 57.408 8.848 57.408 10.64C57.408 12.4 56.224 13.44 53.984 13.44ZM67.5945 9.584V14C67.5945 15.92 66.4905 17.056 64.7305 17.056C63.1305 17.056 62.2025 16.144 62.2025 14.352V9.584H61.0665V14.464C61.0665 16.88 62.4745 18.08 64.6185 18.08C65.9625 18.08 67.0505 17.488 67.6425 16.464V18H68.7305V9.584H67.5945ZM74.8561 9.52C73.5281 9.52 72.2801 9.936 71.4321 10.656L71.9441 11.504C72.6321 10.896 73.6561 10.512 74.7441 10.512C76.3121 10.512 77.1281 11.296 77.1281 12.736V13.248H74.4561C72.0401 13.248 71.2081 14.336 71.2081 15.632C71.2081 17.088 72.3761 18.08 74.2801 18.08C75.6721 18.08 76.6641 17.552 77.1761 16.688V18H78.2641V12.784C78.2641 10.608 77.0321 9.52 74.8561 9.52ZM74.4561 17.184C73.1121 17.184 72.3281 16.576 72.3281 15.6C72.3281 14.736 72.8561 14.096 74.4881 14.096H77.1281V15.472C76.6801 16.576 75.7361 17.184 74.4561 17.184ZM89.9691 6.8H85.7771V18H86.9611V14.464H89.9691C92.8171 14.464 94.5451 13.024 94.5451 10.64C94.5451 8.24 92.8171 6.8 89.9691 6.8ZM89.9371 13.424H86.9611V7.824H89.9371C92.1771 7.824 93.3611 8.848 93.3611 10.64C93.3611 12.4 92.1771 13.424 89.9371 13.424ZM97.7345 11.232V9.584H96.6465V18H97.7825V13.712C97.7825 11.728 98.8545 10.608 100.615 10.608C100.695 10.608 100.791 10.624 100.887 10.624V9.52C99.3345 9.52 98.2625 10.112 97.7345 11.232ZM106.305 18.08C108.769 18.08 110.577 16.288 110.577 13.792C110.577 11.296 108.769 9.52 106.305 9.52C103.841 9.52 102.017 11.296 102.017 13.792C102.017 16.288 103.841 18.08 106.305 18.08ZM106.305 17.072C104.513 17.072 103.169 15.76 103.169 13.792C103.169 11.824 104.513 10.512 106.305 10.512C108.097 10.512 109.425 11.824 109.425 13.792C109.425 15.76 108.097 17.072 106.305 17.072ZM115.681 7.008C116.161 7.008 116.609 7.152 116.929 7.424L117.313 6.576C116.897 6.224 116.257 6.048 115.633 6.048C113.985 6.048 113.089 7.04 113.089 8.544V9.584H111.585V10.544H113.089V18H114.225V10.544H116.785V9.584H114.193V8.592C114.193 7.552 114.705 7.008 115.681 7.008ZM125.522 13.792C125.522 11.264 123.81 9.52 121.442 9.52C119.074 9.52 117.33 11.296 117.33 13.792C117.33 16.288 119.122 18.08 121.746 18.08C123.074 18.08 124.242 17.6 124.994 16.704L124.354 15.968C123.714 16.704 122.802 17.072 121.778 17.072C119.938 17.072 118.594 15.904 118.466 14.144H125.506C125.506 14.016 125.522 13.888 125.522 13.792ZM121.442 10.496C123.09 10.496 124.29 11.648 124.434 13.296H118.466C118.61 11.648 119.81 10.496 121.442 10.496ZM130.09 18.08C132.282 18.08 133.562 17.136 133.562 15.68C133.562 12.448 128.106 14.16 128.106 11.888C128.106 11.088 128.778 10.496 130.298 10.496C131.162 10.496 132.042 10.704 132.778 11.216L133.274 10.304C132.57 9.824 131.386 9.52 130.298 9.52C128.154 9.52 126.97 10.544 126.97 11.92C126.97 15.248 132.426 13.52 132.426 15.712C132.426 16.544 131.77 17.088 130.17 17.088C128.986 17.088 127.85 16.672 127.178 16.144L126.666 17.04C127.354 17.632 128.698 18.08 130.09 18.08ZM137.918 18.08C140.11 18.08 141.39 17.136 141.39 15.68C141.39 12.448 135.934 14.16 135.934 11.888C135.934 11.088 136.606 10.496 138.126 10.496C138.99 10.496 139.87 10.704 140.606 11.216L141.102 10.304C140.398 9.824 139.214 9.52 138.126 9.52C135.982 9.52 134.798 10.544 134.798 11.92C134.798 15.248 140.254 13.52 140.254 15.712C140.254 16.544 139.598 17.088 137.998 17.088C136.814 17.088 135.678 16.672 135.006 16.144L134.494 17.04C135.182 17.632 136.526 18.08 137.918 18.08ZM146.93 18.08C149.394 18.08 151.202 16.288 151.202 13.792C151.202 11.296 149.394 9.52 146.93 9.52C144.466 9.52 142.642 11.296 142.642 13.792C142.642 16.288 144.466 18.08 146.93 18.08ZM146.93 17.072C145.138 17.072 143.794 15.76 143.794 13.792C143.794 11.824 145.138 10.512 146.93 10.512C148.722 10.512 150.05 11.824 150.05 13.792C150.05 15.76 148.722 17.072 146.93 17.072ZM154.61 11.232V9.584H153.522V18H154.658V13.712C154.658 11.728 155.73 10.608 157.49 10.608C157.57 10.608 157.666 10.624 157.762 10.624V9.52C156.21 9.52 155.138 10.112 154.61 11.232ZM164.371 18H171.827V16.976H165.555V6.8H164.371V18ZM174.129 7.744C174.609 7.744 174.961 7.376 174.961 6.912C174.961 6.48 174.593 6.128 174.129 6.128C173.665 6.128 173.297 6.496 173.297 6.928C173.297 7.376 173.665 7.744 174.129 7.744ZM173.553 18H174.689V9.584H173.553V18ZM182.138 9.52C180.682 9.52 179.546 10.112 178.938 11.136V9.584H177.85V18H178.986V13.584C178.986 11.664 180.122 10.544 181.93 10.544C183.53 10.544 184.458 11.456 184.458 13.232V18H185.594V13.12C185.594 10.704 184.186 9.52 182.138 9.52ZM190.934 18.08C193.126 18.08 194.406 17.136 194.406 15.68C194.406 12.448 188.95 14.16 188.95 11.888C188.95 11.088 189.622 10.496 191.142 10.496C192.006 10.496 192.886 10.704 193.622 11.216L194.118 10.304C193.414 9.824 192.23 9.52 191.142 9.52C188.998 9.52 187.814 10.544 187.814 11.92C187.814 15.248 193.27 13.52 193.27 15.712C193.27 16.544 192.614 17.088 191.014 17.088C189.83 17.088 188.694 16.672 188.022 16.144L187.51 17.04C188.198 17.632 189.542 18.08 190.934 18.08ZM208.037 13.792C208.037 11.264 206.325 9.52 203.957 9.52C201.589 9.52 199.845 11.296 199.845 13.792C199.845 16.288 201.637 18.08 204.261 18.08C205.589 18.08 206.757 17.6 207.509 16.704L206.869 15.968C206.229 16.704 205.317 17.072 204.293 17.072C202.453 17.072 201.109 15.904 200.981 14.144H208.021C208.021 14.016 208.037 13.888 208.037 13.792ZM203.957 10.496C205.605 10.496 206.805 11.648 206.949 13.296H200.981C201.125 11.648 202.325 10.496 203.957 10.496ZM217.865 18.096C220.729 18.096 222.041 16.688 222.041 15.04C222.041 10.96 215.145 12.816 215.145 9.744C215.145 8.624 216.057 7.712 218.105 7.712C219.097 7.712 220.217 8.016 221.177 8.64L221.577 7.696C220.681 7.072 219.369 6.704 218.105 6.704C215.257 6.704 213.977 8.128 213.977 9.776C213.977 13.92 220.873 12.032 220.873 15.104C220.873 16.208 219.961 17.088 217.865 17.088C216.393 17.088 214.969 16.512 214.169 15.728L213.705 16.64C214.537 17.504 216.185 18.096 217.865 18.096ZM224.957 7.744C225.437 7.744 225.789 7.376 225.789 6.912C225.789 6.48 225.421 6.128 224.957 6.128C224.493 6.128 224.125 6.496 224.125 6.928C224.125 7.376 224.493 7.744 224.957 7.744ZM224.381 18H225.517V9.584H224.381V18ZM228.678 18H229.814V6.128H228.678V18ZM238.927 9.584L235.743 16.752L232.591 9.584H231.407L235.135 18H236.303L240.047 9.584H238.927ZM244.341 9.52C243.013 9.52 241.765 9.936 240.917 10.656L241.429 11.504C242.117 10.896 243.141 10.512 244.229 10.512C245.797 10.512 246.613 11.296 246.613 12.736V13.248H243.941C241.525 13.248 240.693 14.336 240.693 15.632C240.693 17.088 241.861 18.08 243.765 18.08C245.157 18.08 246.149 17.552 246.661 16.688V18H247.749V12.784C247.749 10.608 246.517 9.52 244.341 9.52ZM243.941 17.184C242.597 17.184 241.812 16.576 241.812 15.6C241.812 14.736 242.341 14.096 243.973 14.096H246.613V15.472C246.165 16.576 245.221 17.184 243.941 17.184ZM250.962 16.336C250.482 16.336 250.114 16.704 250.114 17.2C250.114 17.616 250.354 17.92 250.69 18.016L250.146 20.336H250.914L251.586 18.128C251.746 17.68 251.81 17.472 251.81 17.2C251.81 16.72 251.458 16.336 250.962 16.336ZM256.972 6.8V7.824H259.612V18H260.764V6.8H256.972ZM268.081 11.296C266.529 11.296 265.217 11.984 264.657 13.216C264.625 12.88 264.609 12.56 264.609 12.304C264.609 9.264 266.161 7.712 268.577 7.712C269.409 7.712 270.177 7.856 270.753 8.24L271.217 7.312C270.513 6.88 269.569 6.704 268.561 6.704C265.521 6.704 263.441 8.688 263.441 12.496C263.441 16.032 265.057 18.096 268.033 18.096C270.209 18.096 271.857 16.752 271.857 14.656C271.857 12.608 270.305 11.296 268.081 11.296ZM267.985 17.12C266.049 17.12 265.025 15.952 265.025 14.72C265.025 13.328 266.193 12.272 267.905 12.272C269.633 12.272 270.721 13.216 270.721 14.688C270.721 16.176 269.601 17.12 267.985 17.12ZM272.503 6.8V7.824H275.143V18H276.295V6.8H272.503ZM279.101 14.16H283.293V13.168H279.101V14.16ZM294.208 18H295.456L290.336 6.8H289.168L284.048 18H285.28L286.624 15.008H292.864L294.208 18ZM287.056 14.048L289.744 8.032L292.432 14.048H287.056ZM297.727 18.08C298.191 18.08 298.591 17.696 298.591 17.2C298.591 16.704 298.191 16.336 297.727 16.336C297.263 16.336 296.879 16.704 296.879 17.2C296.879 17.696 297.263 18.08 297.727 18.08ZM309.625 6.8H305.433V18H306.617V14.464H309.625C312.473 14.464 314.201 13.024 314.201 10.64C314.201 8.24 312.473 6.8 309.625 6.8ZM309.593 13.424H306.617V7.824H309.593C311.833 7.824 313.017 8.848 313.017 10.64C313.017 12.4 311.833 13.424 309.593 13.424ZM317.391 11.232V9.584H316.303V18H317.439V13.712C317.439 11.728 318.511 10.608 320.271 10.608C320.351 10.608 320.447 10.624 320.543 10.624V9.52C318.991 9.52 317.919 10.112 317.391 11.232ZM325.528 9.52C324.2 9.52 322.952 9.936 322.104 10.656L322.616 11.504C323.304 10.896 324.328 10.512 325.416 10.512C326.984 10.512 327.8 11.296 327.8 12.736V13.248H325.128C322.712 13.248 321.88 14.336 321.88 15.632C321.88 17.088 323.048 18.08 324.952 18.08C326.344 18.08 327.336 17.552 327.848 16.688V18H328.936V12.784C328.936 10.608 327.704 9.52 325.528 9.52ZM325.128 17.184C323.784 17.184 323 16.576 323 15.6C323 14.736 323.528 14.096 325.16 14.096H327.8V15.472C327.352 16.576 326.408 17.184 325.128 17.184ZM338.597 6.128V11.184C337.893 10.096 336.741 9.52 335.397 9.52C332.997 9.52 331.205 11.248 331.205 13.792C331.205 16.336 332.997 18.08 335.397 18.08C336.789 18.08 337.957 17.472 338.645 16.336V18H339.733V6.128H338.597ZM335.493 17.072C333.701 17.072 332.357 15.76 332.357 13.792C332.357 11.824 333.701 10.512 335.493 10.512C337.269 10.512 338.613 11.824 338.613 13.792C338.613 15.76 337.269 17.072 335.493 17.072ZM346.337 18.08C348.801 18.08 350.609 16.288 350.609 13.792C350.609 11.296 348.801 9.52 346.337 9.52C343.873 9.52 342.049 11.296 342.049 13.792C342.049 16.288 343.873 18.08 346.337 18.08ZM346.337 17.072C344.545 17.072 343.201 15.76 343.201 13.792C343.201 11.824 344.545 10.512 346.337 10.512C348.129 10.512 349.457 11.824 349.457 13.792C349.457 15.76 348.129 17.072 346.337 17.072ZM58.768 43L56.032 39.16C57.664 38.632 58.592 37.4 58.592 35.64C58.592 33.24 56.864 31.8 54.016 31.8H49.824V43H51.008V39.448H54.016C54.336 39.448 54.624 39.432 54.912 39.4L57.472 43H58.768ZM53.984 38.44H51.008V32.824H53.984C56.224 32.824 57.408 33.848 57.408 35.64C57.408 37.4 56.224 38.44 53.984 38.44ZM68.4905 38.792C68.4905 36.264 66.7785 34.52 64.4105 34.52C62.0425 34.52 60.2985 36.296 60.2985 38.792C60.2985 41.288 62.0905 43.08 64.7145 43.08C66.0425 43.08 67.2105 42.6 67.9625 41.704L67.3225 40.968C66.6825 41.704 65.7705 42.072 64.7465 42.072C62.9065 42.072 61.5625 40.904 61.4345 39.144H68.4745C68.4745 39.016 68.4905 38.888 68.4905 38.792ZM64.4105 35.496C66.0585 35.496 67.2585 36.648 67.4025 38.296H61.4345C61.5785 36.648 62.7785 35.496 64.4105 35.496ZM74.2908 43.08C75.7148 43.08 76.9148 42.504 77.5868 41.416L76.7388 40.84C76.1628 41.688 75.2668 42.072 74.2908 42.072C72.4508 42.072 71.1068 40.776 71.1068 38.792C71.1068 36.824 72.4508 35.512 74.2908 35.512C75.2668 35.512 76.1628 35.912 76.7388 36.76L77.5868 36.184C76.9148 35.08 75.7148 34.52 74.2908 34.52C71.7788 34.52 69.9548 36.28 69.9548 38.792C69.9548 41.304 71.7788 43.08 74.2908 43.08ZM80.3944 32.744C80.8744 32.744 81.2264 32.376 81.2264 31.912C81.2264 31.48 80.8584 31.128 80.3944 31.128C79.9304 31.128 79.5624 31.496 79.5624 31.928C79.5624 32.376 79.9304 32.744 80.3944 32.744ZM79.8184 43H80.9544V34.584H79.8184V43ZM86.8993 32.008C87.3793 32.008 87.8273 32.152 88.1473 32.424L88.5313 31.576C88.1153 31.224 87.4753 31.048 86.8513 31.048C85.2033 31.048 84.3073 32.04 84.3073 33.544V34.584H82.8033V35.544H84.3073V43H85.4433V35.544H88.0033V34.584H85.4113V33.592C85.4113 32.552 85.9233 32.008 86.8993 32.008ZM96.7405 38.792C96.7405 36.264 95.0285 34.52 92.6605 34.52C90.2925 34.52 88.5485 36.296 88.5485 38.792C88.5485 41.288 90.3405 43.08 92.9645 43.08C94.2925 43.08 95.4605 42.6 96.2125 41.704L95.5725 40.968C94.9325 41.704 94.0205 42.072 92.9965 42.072C91.1565 42.072 89.8125 40.904 89.6845 39.144H96.7245C96.7245 39.016 96.7405 38.888 96.7405 38.792ZM92.6605 35.496C94.3085 35.496 95.5085 36.648 95.6525 38.296H89.6845C89.8285 36.648 91.0285 35.496 92.6605 35.496ZM99.1808 41.336C98.7008 41.336 98.3328 41.704 98.3328 42.2C98.3328 42.616 98.5728 42.92 98.9088 43.016L98.3648 45.336H99.1328L99.8048 43.128C99.9648 42.68 100.029 42.472 100.029 42.2C100.029 41.72 99.6768 41.336 99.1808 41.336ZM111.063 31.8H106.871V43H108.055V39.464H111.063C113.911 39.464 115.639 38.024 115.639 35.64C115.639 33.24 113.911 31.8 111.063 31.8ZM111.031 38.424H108.055V32.824H111.031C113.271 32.824 114.455 33.848 114.455 35.64C114.455 37.4 113.271 38.424 111.031 38.424ZM125.256 38.792C125.256 36.264 123.544 34.52 121.176 34.52C118.808 34.52 117.064 36.296 117.064 38.792C117.064 41.288 118.856 43.08 121.48 43.08C122.808 43.08 123.976 42.6 124.728 41.704L124.088 40.968C123.448 41.704 122.536 42.072 121.512 42.072C119.672 42.072 118.328 40.904 118.2 39.144H125.24C125.24 39.016 125.256 38.888 125.256 38.792ZM121.176 35.496C122.824 35.496 124.024 36.648 124.168 38.296H118.2C118.344 36.648 119.544 35.496 121.176 35.496ZM128.656 36.232V34.584H127.568V43H128.704V38.712C128.704 36.728 129.776 35.608 131.536 35.608C131.616 35.608 131.712 35.624 131.808 35.624V34.52C130.256 34.52 129.184 35.112 128.656 36.232ZM138.153 34.52C136.697 34.52 135.561 35.112 134.953 36.136V34.584H133.865V43H135.001V38.584C135.001 36.664 136.137 35.544 137.945 35.544C139.545 35.544 140.473 36.456 140.473 38.232V43H141.609V38.12C141.609 35.704 140.201 34.52 138.153 34.52ZM147.637 34.52C146.309 34.52 145.061 34.936 144.213 35.656L144.725 36.504C145.413 35.896 146.437 35.512 147.525 35.512C149.093 35.512 149.909 36.296 149.909 37.736V38.248H147.237C144.821 38.248 143.989 39.336 143.989 40.632C143.989 42.088 145.157 43.08 147.061 43.08C148.453 43.08 149.445 42.552 149.957 41.688V43H151.045V37.784C151.045 35.608 149.813 34.52 147.637 34.52ZM147.237 42.184C145.893 42.184 145.109 41.576 145.109 40.6C145.109 39.736 145.637 39.096 147.269 39.096H149.909V40.472C149.461 41.576 148.517 42.184 147.237 42.184ZM164.627 34.52C163.107 34.52 161.907 35.208 161.299 36.296C160.787 35.112 159.699 34.52 158.307 34.52C156.899 34.52 155.811 35.112 155.219 36.12V34.584H154.131V43H155.267V38.584C155.267 36.664 156.371 35.544 158.083 35.544C159.619 35.544 160.515 36.456 160.515 38.232V43H161.651V38.584C161.651 36.664 162.739 35.544 164.467 35.544C165.987 35.544 166.883 36.456 166.883 38.232V43H168.019V38.12C168.019 35.704 166.675 34.52 164.627 34.52ZM175.436 34.52C174.092 34.52 172.94 35.096 172.236 36.184V31.128H171.1V43H172.188V41.336C172.876 42.472 174.044 43.08 175.436 43.08C177.836 43.08 179.628 41.336 179.628 38.792C179.628 36.248 177.836 34.52 175.436 34.52ZM175.356 42.072C173.564 42.072 172.22 40.76 172.22 38.792C172.22 36.824 173.564 35.512 175.356 35.512C177.132 35.512 178.492 36.824 178.492 38.792C178.492 40.76 177.132 42.072 175.356 42.072ZM188.391 34.584V39C188.391 40.92 187.287 42.056 185.527 42.056C183.927 42.056 182.999 41.144 182.999 39.352V34.584H181.863V39.464C181.863 41.88 183.271 43.08 185.415 43.08C186.759 43.08 187.847 42.488 188.439 41.464V43H189.527V34.584H188.391ZM196.197 43.08C197.621 43.08 198.821 42.504 199.493 41.416L198.645 40.84C198.069 41.688 197.173 42.072 196.197 42.072C194.357 42.072 193.013 40.776 193.013 38.792C193.013 36.824 194.357 35.512 196.197 35.512C197.173 35.512 198.069 35.912 198.645 36.76L199.493 36.184C198.821 35.08 197.621 34.52 196.197 34.52C193.685 34.52 191.861 36.28 191.861 38.792C191.861 41.304 193.685 43.08 196.197 43.08ZM205.024 43.08C207.488 43.08 209.296 41.288 209.296 38.792C209.296 36.296 207.488 34.52 205.024 34.52C202.56 34.52 200.736 36.296 200.736 38.792C200.736 41.288 202.56 43.08 205.024 43.08ZM205.024 42.072C203.232 42.072 201.888 40.76 201.888 38.792C201.888 36.824 203.232 35.512 205.024 35.512C206.816 35.512 208.144 36.824 208.144 38.792C208.144 40.76 206.816 42.072 205.024 42.072ZM211.493 43.08C211.957 43.08 212.357 42.696 212.357 42.2C212.357 41.704 211.957 41.336 211.493 41.336C211.029 41.336 210.645 41.704 210.645 42.2C210.645 42.696 211.029 43.08 211.493 43.08ZM51.776 61.392H50.336L50.72 57.824H55.84V56.8H49.712L49.136 62.416H51.52C54.368 62.416 55.264 63.312 55.264 64.752C55.264 66.112 54.256 67.04 52.352 67.04C50.912 67.04 49.632 66.496 48.912 65.744L48.352 66.656C49.216 67.536 50.752 68.096 52.368 68.096C55.104 68.096 56.432 66.608 56.432 64.704C56.432 62.72 55.152 61.392 51.776 61.392ZM62.3585 68.096C64.9505 68.096 66.8385 65.968 66.8385 62.4C66.8385 58.832 64.9505 56.704 62.3585 56.704C59.7665 56.704 57.8945 58.832 57.8945 62.4C57.8945 65.968 59.7665 68.096 62.3585 68.096ZM62.3585 67.04C60.4065 67.04 59.0625 65.392 59.0625 62.4C59.0625 59.408 60.4065 57.76 62.3585 57.76C64.3105 57.76 65.6545 59.408 65.6545 62.4C65.6545 65.392 64.3105 67.04 62.3585 67.04ZM68.0433 56.8V59.92H69.1793V57.824H74.9393L70.3313 68H71.5793L76.2673 57.616V56.8H68.0433ZM79.2731 66.976L83.0811 63.232C84.5851 61.76 84.9211 60.8 84.9211 59.728C84.9211 57.856 83.4811 56.704 81.2091 56.704C79.4971 56.704 78.1051 57.28 77.2411 58.304L78.0571 59.008C78.7931 58.16 79.8011 57.76 81.1131 57.76C82.8251 57.76 83.7371 58.56 83.7371 59.856C83.7371 60.624 83.4971 61.376 82.2331 62.624L77.5771 67.184V68H85.4331V66.976H79.2731ZM91.2804 68.096C93.8724 68.096 95.7604 65.968 95.7604 62.4C95.7604 58.832 93.8724 56.704 91.2804 56.704C88.6884 56.704 86.8164 58.832 86.8164 62.4C86.8164 65.968 88.6884 68.096 91.2804 68.096ZM91.2804 67.04C89.3284 67.04 87.9844 65.392 87.9844 62.4C87.9844 59.408 89.3284 57.76 91.2804 57.76C93.2324 57.76 94.5764 59.408 94.5764 62.4C94.5764 65.392 93.2324 67.04 91.2804 67.04ZM97.6631 64.16H101.855V63.168H97.6631V64.16ZM107.14 61.6L110.308 57.616V56.8H103.108V57.824H108.836L105.732 61.712V62.56H106.532C108.612 62.56 109.556 63.44 109.556 64.784C109.556 66.176 108.532 67.04 106.676 67.04C105.22 67.04 103.924 66.496 103.204 65.744L102.644 66.656C103.508 67.536 105.06 68.096 106.676 68.096C109.38 68.096 110.74 66.656 110.74 64.784C110.74 62.992 109.54 61.728 107.14 61.6ZM113.773 66.976L117.581 63.232C119.085 61.76 119.421 60.8 119.421 59.728C119.421 57.856 117.981 56.704 115.709 56.704C113.997 56.704 112.605 57.28 111.741 58.304L112.557 59.008C113.293 58.16 114.301 57.76 115.613 57.76C117.325 57.76 118.237 58.56 118.237 59.856C118.237 60.624 117.997 61.376 116.733 62.624L112.077 67.184V68H119.933V66.976H113.773ZM125.78 68.096C128.372 68.096 130.26 65.968 130.26 62.4C130.26 58.832 128.372 56.704 125.78 56.704C123.188 56.704 121.316 58.832 121.316 62.4C121.316 65.968 123.188 68.096 125.78 68.096ZM125.78 67.04C123.828 67.04 122.484 65.392 122.484 62.4C122.484 59.408 123.828 57.76 125.78 57.76C127.732 57.76 129.076 59.408 129.076 62.4C129.076 65.392 127.732 67.04 125.78 67.04Z" fill="white"/>
<path d="M11.339 0C5.08664 0 0 5.08664 0 11.339C0 13.919 0.84547 16.3487 2.44504 18.3655C4.51619 20.9769 10.5391 27.1772 10.7945 27.4399L11.339 28L11.8835 27.4399C12.139 27.1772 18.1638 20.9754 20.2352 18.3632C21.8334 16.348 22.6781 13.9191 22.6781 11.339C22.6781 5.08664 17.5914 0 11.339 0ZM19.045 17.4194C17.3775 19.5222 12.8992 24.2 11.339 25.818C9.77903 24.2001 5.30234 19.5237 3.63517 17.4216C2.25076 15.676 1.51899 13.5727 1.51899 11.339C1.51899 5.92421 5.92421 1.51899 11.339 1.51899C16.7538 1.51899 21.1591 5.92421 21.159 11.339C21.159 13.5729 20.428 15.6754 19.045 17.4194Z" fill="white"/>
<path d="M11.339 4.50114C7.63802 4.50114 4.62708 7.51209 4.62708 11.2131C4.62708 14.9141 7.63809 17.9251 11.339 17.9251C15.04 17.9251 18.051 14.9141 18.051 11.2131C18.051 7.51216 15.0401 4.50114 11.339 4.50114ZM11.339 16.4061C8.47559 16.4061 6.14607 14.0765 6.14607 11.2131C6.14607 8.34966 8.47566 6.02013 11.339 6.02013C14.2024 6.02013 16.5319 8.34973 16.532 11.2131C16.532 14.0766 14.2025 16.4061 11.339 16.4061Z" fill="white"/>
</svg>
