<svg width="359" height="22" viewBox="0 0 359 22" fill="none" xmlns="http://www.w3.org/2000/svg">
<path d="M57.072 16.08C58.496 16.08 59.696 15.504 60.368 14.416L59.52 13.84C58.944 14.688 58.048 15.072 57.072 15.072C55.232 15.072 53.888 13.776 53.888 11.792C53.888 9.824 55.232 8.512 57.072 8.512C58.048 8.512 58.944 8.912 59.52 9.76L60.368 9.184C59.696 8.08 58.496 7.52 57.072 7.52C54.56 7.52 52.736 9.28 52.736 11.792C52.736 14.304 54.56 16.08 57.072 16.08ZM65.5436 7.52C64.2156 7.52 62.9676 7.936 62.1196 8.656L62.6316 9.504C63.3196 8.896 64.3436 8.512 65.4316 8.512C66.9996 8.512 67.8156 9.296 67.8156 10.736V11.248H65.1436C62.7276 11.248 61.8956 12.336 61.8956 13.632C61.8956 15.088 63.0636 16.08 64.9676 16.08C66.3596 16.08 67.3516 15.552 67.8636 14.688V16H68.9516V10.784C68.9516 8.608 67.7196 7.52 65.5436 7.52ZM65.1436 15.184C63.7996 15.184 63.0156 14.576 63.0156 13.6C63.0156 12.736 63.5436 12.096 65.1756 12.096H67.8156V13.472C67.3676 14.576 66.4236 15.184 65.1436 15.184ZM74.2931 16.08C76.4851 16.08 77.7651 15.136 77.7651 13.68C77.7651 10.448 72.3091 12.16 72.3091 9.888C72.3091 9.088 72.9811 8.496 74.5011 8.496C75.3651 8.496 76.2451 8.704 76.9811 9.216L77.4771 8.304C76.7731 7.824 75.5891 7.52 74.5011 7.52C72.3571 7.52 71.1731 8.544 71.1731 9.92C71.1731 13.248 76.6291 11.52 76.6291 13.712C76.6291 14.544 75.9731 15.088 74.3731 15.088C73.1891 15.088 72.0531 14.672 71.3811 14.144L70.8691 15.04C71.5571 15.632 72.9011 16.08 74.2931 16.08ZM82.8093 7.52C81.4813 7.52 80.2333 7.936 79.3853 8.656L79.8973 9.504C80.5853 8.896 81.6093 8.512 82.6973 8.512C84.2653 8.512 85.0813 9.296 85.0813 10.736V11.248H82.4093C79.9933 11.248 79.1613 12.336 79.1613 13.632C79.1613 15.088 80.3293 16.08 82.2333 16.08C83.6253 16.08 84.6173 15.552 85.1293 14.688V16H86.2173V10.784C86.2173 8.608 84.9853 7.52 82.8093 7.52ZM82.4093 15.184C81.0653 15.184 80.2812 14.576 80.2812 13.6C80.2812 12.736 80.8093 12.096 82.4413 12.096H85.0813V13.472C84.6333 14.576 83.6893 15.184 82.4093 15.184ZM91.5588 16.08C93.7508 16.08 95.0308 15.136 95.0308 13.68C95.0308 10.448 89.5748 12.16 89.5748 9.888C89.5748 9.088 90.2468 8.496 91.7668 8.496C92.6308 8.496 93.5108 8.704 94.2468 9.216L94.7428 8.304C94.0388 7.824 92.8548 7.52 91.7668 7.52C89.6228 7.52 88.4388 8.544 88.4388 9.92C88.4388 13.248 93.8948 11.52 93.8948 13.712C93.8948 14.544 93.2388 15.088 91.6388 15.088C90.4548 15.088 89.3188 14.672 88.6468 14.144L88.1348 15.04C88.8228 15.632 90.1668 16.08 91.5588 16.08ZM100.571 16.08C103.035 16.08 104.843 14.288 104.843 11.792C104.843 9.296 103.035 7.52 100.571 7.52C98.1069 7.52 96.2829 9.296 96.2829 11.792C96.2829 14.288 98.1069 16.08 100.571 16.08ZM100.571 15.072C98.7789 15.072 97.4349 13.76 97.4349 11.792C97.4349 9.824 98.7789 8.512 100.571 8.512C102.363 8.512 103.691 9.824 103.691 11.792C103.691 13.76 102.363 15.072 100.571 15.072ZM110.65 16.08C112.074 16.08 113.274 15.504 113.946 14.416L113.098 13.84C112.522 14.688 111.626 15.072 110.65 15.072C108.81 15.072 107.466 13.776 107.466 11.792C107.466 9.824 108.81 8.512 110.65 8.512C111.626 8.512 112.522 8.912 113.098 9.76L113.946 9.184C113.274 8.08 112.074 7.52 110.65 7.52C108.138 7.52 106.314 9.28 106.314 11.792C106.314 14.304 108.138 16.08 110.65 16.08ZM116.754 5.744C117.234 5.744 117.586 5.376 117.586 4.912C117.586 4.48 117.218 4.128 116.754 4.128C116.29 4.128 115.922 4.496 115.922 4.928C115.922 5.376 116.29 5.744 116.754 5.744ZM116.178 16H117.314V7.584H116.178V16ZM123.419 7.52C122.091 7.52 120.843 7.936 119.995 8.656L120.507 9.504C121.195 8.896 122.219 8.512 123.307 8.512C124.875 8.512 125.691 9.296 125.691 10.736V11.248H123.019C120.603 11.248 119.771 12.336 119.771 13.632C119.771 15.088 120.939 16.08 122.843 16.08C124.235 16.08 125.227 15.552 125.739 14.688V16H126.827V10.784C126.827 8.608 125.595 7.52 123.419 7.52ZM123.019 15.184C121.675 15.184 120.891 14.576 120.891 13.6C120.891 12.736 121.419 12.096 123.051 12.096H125.691V13.472C125.243 14.576 124.299 15.184 123.019 15.184ZM129.912 16H131.048V4.128H129.912V16ZM140.753 4.128V9.184C140.049 8.096 138.897 7.52 137.553 7.52C135.153 7.52 133.361 9.248 133.361 11.792C133.361 14.336 135.153 16.08 137.553 16.08C138.945 16.08 140.113 15.472 140.801 14.336V16H141.889V4.128H140.753ZM137.649 15.072C135.857 15.072 134.513 13.76 134.513 11.792C134.513 9.824 135.857 8.512 137.649 8.512C139.425 8.512 140.769 9.824 140.769 11.792C140.769 13.76 139.425 15.072 137.649 15.072ZM147.997 7.52C146.669 7.52 145.421 7.936 144.573 8.656L145.085 9.504C145.773 8.896 146.797 8.512 147.885 8.512C149.453 8.512 150.269 9.296 150.269 10.736V11.248H147.597C145.181 11.248 144.349 12.336 144.349 13.632C144.349 15.088 145.517 16.08 147.421 16.08C148.813 16.08 149.805 15.552 150.317 14.688V16H151.405V10.784C151.405 8.608 150.173 7.52 147.997 7.52ZM147.597 15.184C146.253 15.184 145.469 14.576 145.469 13.6C145.469 12.736 145.997 12.096 147.629 12.096H150.269V13.472C149.821 14.576 148.877 15.184 147.597 15.184ZM158.01 16.08C159.434 16.08 160.634 15.504 161.306 14.416L160.458 13.84C159.882 14.688 158.986 15.072 158.01 15.072C156.17 15.072 154.826 13.776 154.826 11.792C154.826 9.824 156.17 8.512 158.01 8.512C158.986 8.512 159.882 8.912 160.458 9.76L161.306 9.184C160.634 8.08 159.434 7.52 158.01 7.52C155.498 7.52 153.674 9.28 153.674 11.792C153.674 14.304 155.498 16.08 158.01 16.08ZM166.837 16.08C169.301 16.08 171.109 14.288 171.109 11.792C171.109 9.296 169.301 7.52 166.837 7.52C164.373 7.52 162.549 9.296 162.549 11.792C162.549 14.288 164.373 16.08 166.837 16.08ZM166.837 15.072C165.045 15.072 163.701 13.76 163.701 11.792C163.701 9.824 165.045 8.512 166.837 8.512C168.629 8.512 169.957 9.824 169.957 11.792C169.957 13.76 168.629 15.072 166.837 15.072ZM183.924 7.52C182.404 7.52 181.204 8.208 180.596 9.296C180.084 8.112 178.996 7.52 177.604 7.52C176.196 7.52 175.108 8.112 174.516 9.12V7.584H173.428V16H174.564V11.584C174.564 9.664 175.668 8.544 177.38 8.544C178.916 8.544 179.812 9.456 179.812 11.232V16H180.948V11.584C180.948 9.664 182.036 8.544 183.764 8.544C185.284 8.544 186.18 9.456 186.18 11.232V16H187.316V11.12C187.316 8.704 185.972 7.52 183.924 7.52ZM196.845 7.584V12C196.845 13.92 195.741 15.056 193.981 15.056C192.381 15.056 191.453 14.144 191.453 12.352V7.584H190.317V12.464C190.317 14.88 191.725 16.08 193.869 16.08C195.213 16.08 196.301 15.488 196.892 14.464V16H197.981V7.584H196.845ZM205.45 7.52C203.994 7.52 202.858 8.112 202.25 9.136V7.584H201.162V16H202.298V11.584C202.298 9.664 203.434 8.544 205.242 8.544C206.842 8.544 207.77 9.456 207.77 11.232V16H208.906V11.12C208.906 8.704 207.498 7.52 205.45 7.52ZM212.566 5.744C213.046 5.744 213.398 5.376 213.398 4.912C213.398 4.48 213.03 4.128 212.566 4.128C212.102 4.128 211.734 4.496 211.734 4.928C211.734 5.376 212.102 5.744 212.566 5.744ZM211.99 16H213.126V7.584H211.99V16ZM222.831 4.128V9.184C222.127 8.096 220.975 7.52 219.631 7.52C217.231 7.52 215.439 9.248 215.439 11.792C215.439 14.336 217.231 16.08 219.631 16.08C221.023 16.08 222.191 15.472 222.879 14.336V16H223.967V4.128H222.831ZM219.727 15.072C217.935 15.072 216.591 13.76 216.591 11.792C216.591 9.824 217.935 8.512 219.727 8.512C221.503 8.512 222.847 9.824 222.847 11.792C222.847 13.76 221.503 15.072 219.727 15.072ZM230.075 7.52C228.747 7.52 227.499 7.936 226.651 8.656L227.163 9.504C227.851 8.896 228.875 8.512 229.963 8.512C231.531 8.512 232.347 9.296 232.347 10.736V11.248H229.675C227.259 11.248 226.427 12.336 226.427 13.632C226.427 15.088 227.595 16.08 229.499 16.08C230.891 16.08 231.883 15.552 232.395 14.688V16H233.483V10.784C233.483 8.608 232.251 7.52 230.075 7.52ZM229.675 15.184C228.331 15.184 227.547 14.576 227.547 13.6C227.547 12.736 228.075 12.096 229.707 12.096H232.347V13.472C231.899 14.576 230.955 15.184 229.675 15.184ZM243.144 4.128V9.184C242.44 8.096 241.288 7.52 239.944 7.52C237.544 7.52 235.752 9.248 235.752 11.792C235.752 14.336 237.544 16.08 239.944 16.08C241.336 16.08 242.504 15.472 243.192 14.336V16H244.28V4.128H243.144ZM240.04 15.072C238.248 15.072 236.904 13.76 236.904 11.792C236.904 9.824 238.248 8.512 240.04 8.512C241.816 8.512 243.16 9.824 243.16 11.792C243.16 13.76 241.816 15.072 240.04 15.072ZM254.787 11.792C254.787 9.264 253.075 7.52 250.707 7.52C248.339 7.52 246.595 9.296 246.595 11.792C246.595 14.288 248.387 16.08 251.011 16.08C252.339 16.08 253.507 15.6 254.259 14.704L253.619 13.968C252.979 14.704 252.067 15.072 251.043 15.072C249.203 15.072 247.859 13.904 247.731 12.144H254.771C254.771 12.016 254.787 11.888 254.787 11.792ZM250.707 8.496C252.355 8.496 253.555 9.648 253.699 11.296H247.731C247.875 9.648 249.075 8.496 250.707 8.496ZM263.82 4.704C259.404 4.704 256.348 7.68 256.348 11.936C256.348 16.176 259.356 19.2 263.756 19.2C264.828 19.2 266.14 18.96 267.1 18.464L266.828 17.68C265.9 18.16 264.716 18.384 263.756 18.384C259.868 18.384 257.228 15.728 257.228 11.936C257.228 8.144 259.9 5.52 263.82 5.52C267.692 5.52 270.396 8.016 270.396 11.776C270.396 13.936 269.756 15.168 268.764 15.168C268.22 15.168 267.772 14.848 267.772 13.952V7.888H266.732V9.504C266.076 8.432 264.94 7.824 263.564 7.824C261.292 7.824 259.596 9.536 259.596 11.936C259.596 14.352 261.292 16.08 263.564 16.08C264.972 16.08 266.124 15.44 266.764 14.336C266.828 15.44 267.532 16.08 268.572 16.08C270.22 16.08 271.228 14.48 271.228 11.76C271.228 7.568 268.156 4.704 263.82 4.704ZM263.708 15.152C261.932 15.152 260.652 13.856 260.652 11.936C260.652 10.016 261.932 8.752 263.708 8.752C265.436 8.752 266.748 10 266.748 11.936C266.748 13.888 265.436 15.152 263.708 15.152ZM279.583 7.584L276.415 14.736L273.247 7.584H272.063L275.823 15.984L275.455 16.8C274.975 17.856 274.463 18.208 273.711 18.208C273.103 18.208 272.591 17.984 272.175 17.568L271.647 18.416C272.159 18.928 272.911 19.184 273.695 19.184C274.895 19.184 275.791 18.656 276.495 17.008L280.703 7.584H279.583ZM284.997 7.52C283.669 7.52 282.421 7.936 281.573 8.656L282.085 9.504C282.773 8.896 283.797 8.512 284.885 8.512C286.453 8.512 287.269 9.296 287.269 10.736V11.248H284.597C282.181 11.248 281.349 12.336 281.349 13.632C281.349 15.088 282.517 16.08 284.421 16.08C285.813 16.08 286.805 15.552 287.317 14.688V16H288.405V10.784C288.405 8.608 287.173 7.52 284.997 7.52ZM284.597 15.184C283.253 15.184 282.469 14.576 282.469 13.6C282.469 12.736 282.997 12.096 284.629 12.096H287.269V13.472C286.821 14.576 285.877 15.184 284.597 15.184ZM295.778 7.52C294.354 7.52 293.25 8.08 292.626 9.056V4.128H291.49V16H292.626V11.584C292.626 9.664 293.762 8.544 295.57 8.544C297.17 8.544 298.098 9.456 298.098 11.232V16H299.234V11.12C299.234 8.704 297.826 7.52 295.778 7.52ZM305.79 16.08C308.254 16.08 310.062 14.288 310.062 11.792C310.062 9.296 308.254 7.52 305.79 7.52C303.326 7.52 301.502 9.296 301.502 11.792C301.502 14.288 303.326 16.08 305.79 16.08ZM305.79 15.072C303.998 15.072 302.654 13.76 302.654 11.792C302.654 9.824 303.998 8.512 305.79 8.512C307.582 8.512 308.91 9.824 308.91 11.792C308.91 13.76 307.582 15.072 305.79 15.072ZM315.821 16.08C318.285 16.08 320.093 14.288 320.093 11.792C320.093 9.296 318.285 7.52 315.821 7.52C313.357 7.52 311.533 9.296 311.533 11.792C311.533 14.288 313.357 16.08 315.821 16.08ZM315.821 15.072C314.029 15.072 312.685 13.76 312.685 11.792C312.685 9.824 314.029 8.512 315.821 8.512C317.613 8.512 318.941 9.824 318.941 11.792C318.941 13.76 317.613 15.072 315.821 15.072ZM322.29 16.08C322.754 16.08 323.154 15.696 323.154 15.2C323.154 14.704 322.754 14.336 322.29 14.336C321.826 14.336 321.442 14.704 321.442 15.2C321.442 15.696 321.826 16.08 322.29 16.08ZM328.822 16.08C330.246 16.08 331.446 15.504 332.118 14.416L331.27 13.84C330.694 14.688 329.798 15.072 328.822 15.072C326.982 15.072 325.638 13.776 325.638 11.792C325.638 9.824 326.982 8.512 328.822 8.512C329.798 8.512 330.694 8.912 331.27 9.76L332.118 9.184C331.446 8.08 330.246 7.52 328.822 7.52C326.31 7.52 324.486 9.28 324.486 11.792C324.486 14.304 326.31 16.08 328.822 16.08ZM337.649 16.08C340.113 16.08 341.921 14.288 341.921 11.792C341.921 9.296 340.113 7.52 337.649 7.52C335.185 7.52 333.361 9.296 333.361 11.792C333.361 14.288 335.185 16.08 337.649 16.08ZM337.649 15.072C335.857 15.072 334.513 13.76 334.513 11.792C334.513 9.824 335.857 8.512 337.649 8.512C339.441 8.512 340.769 9.824 340.769 11.792C340.769 13.76 339.441 15.072 337.649 15.072ZM354.736 7.52C353.216 7.52 352.016 8.208 351.408 9.296C350.896 8.112 349.808 7.52 348.416 7.52C347.008 7.52 345.92 8.112 345.328 9.12V7.584H344.24V16H345.376V11.584C345.376 9.664 346.48 8.544 348.192 8.544C349.728 8.544 350.624 9.456 350.624 11.232V16H351.76V11.584C351.76 9.664 352.848 8.544 354.576 8.544C356.096 8.544 356.992 9.456 356.992 11.232V16H358.128V11.12C358.128 8.704 356.784 7.52 354.736 7.52Z" fill="white"/>
<path d="M27.2134 0H3.78658C1.69875 0 0 1.69875 0 3.78658V17.2589C0 19.3467 1.69875 21.0454 3.78658 21.0454H27.2134C29.3012 21.0454 31 19.3467 31 17.2589V3.787C31.0004 1.69875 29.3017 0 27.2134 0ZM25.3632 2.47032L15.5 8.82479L5.63685 2.47032H25.3632ZM27.2134 18.5755H3.78658C3.06072 18.5755 2.47032 17.9847 2.47032 17.2593V3.85699L14.7379 11.7455C14.7544 11.7558 14.7721 11.7628 14.789 11.7723C14.8067 11.7822 14.8248 11.7916 14.8429 11.8007C14.938 11.8497 15.036 11.8892 15.136 11.9152C15.1463 11.918 15.1566 11.9193 15.1669 11.9217C15.2768 11.9477 15.388 11.9637 15.4992 11.9637C15.4996 11.9637 15.5 11.9637 15.5 11.9637C15.5008 11.9637 15.5012 11.9637 15.5016 11.9637C15.6128 11.9637 15.724 11.9481 15.8339 11.9217C15.8442 11.9193 15.8545 11.918 15.8648 11.9152C15.9648 11.8892 16.0624 11.8497 16.1579 11.8007C16.176 11.7916 16.1942 11.7822 16.2119 11.7723C16.2287 11.7628 16.2464 11.7558 16.2629 11.7455L28.5305 3.85699V17.2589C28.5301 17.9847 27.9393 18.5755 27.2134 18.5755Z" fill="white"/>
</svg>
