<svg width="57" height="23" viewBox="0 0 57 23" fill="none" xmlns="http://www.w3.org/2000/svg">
<g filter="url(#filter0_d_58_25)">
<path d="M4.24984 14H10.6098C15.1898 14 18.3298 11.24 18.3298 7C18.3298 2.76 15.1898 -9.53674e-07 10.6098 -9.53674e-07H4.24984V14ZM7.48984 11.34V2.66H10.4498C13.2298 2.66 15.0498 4.32 15.0498 7C15.0498 9.68 13.2298 11.34 10.4498 11.34H7.48984ZM25.6733 14.16C29.0933 14.16 31.5733 11.86 31.5733 8.62C31.5733 5.38 29.0933 3.08 25.6733 3.08C22.2533 3.08 19.7533 5.38 19.7533 8.62C19.7533 11.86 22.2533 14.16 25.6733 14.16ZM25.6733 11.6C24.1133 11.6 22.9133 10.48 22.9133 8.62C22.9133 6.76 24.1133 5.64 25.6733 5.64C27.2333 5.64 28.4133 6.76 28.4133 8.62C28.4133 10.48 27.2333 11.6 25.6733 11.6ZM37.823 3.08C36.103 3.08 34.363 3.54 33.183 4.38L34.303 6.56C35.083 5.94 36.263 5.56 37.403 5.56C39.083 5.56 39.883 6.34 39.883 7.68H37.403C34.123 7.68 32.783 9 32.783 10.9C32.783 12.76 34.283 14.16 36.803 14.16C38.383 14.16 39.503 13.64 40.083 12.66V14H43.003V7.86C43.003 4.6 41.103 3.08 37.823 3.08ZM37.583 12.06C36.483 12.06 35.823 11.54 35.823 10.76C35.823 10.04 36.283 9.5 37.743 9.5H39.883V10.6C39.523 11.58 38.623 12.06 37.583 12.06ZM48.8067 4.66V3.24H45.8267V14H48.9467V8.92C48.9467 6.86 50.0867 5.92 51.8067 5.92C52.0467 5.92 52.2467 5.94 52.5067 5.96V3.08C50.8467 3.08 49.5667 3.62 48.8067 4.66Z" fill="white"/>
</g>
<defs>
<filter id="filter0_d_58_25" x="0.249847" y="0" width="56.2569" height="22.1602" filterUnits="userSpaceOnUse" color-interpolation-filters="sRGB">
<feFlood flood-opacity="0" result="BackgroundImageFix"/>
<feColorMatrix in="SourceAlpha" type="matrix" values="0 0 0 0 0 0 0 0 0 0 0 0 0 0 0 0 0 0 127 0" result="hardAlpha"/>
<feOffset dy="4"/>
<feGaussianBlur stdDeviation="2"/>
<feComposite in2="hardAlpha" operator="out"/>
<feColorMatrix type="matrix" values="0 0 0 0 0 0 0 0 0 0 0 0 0 0 0 0 0 0 0.25 0"/>
<feBlend mode="normal" in2="BackgroundImageFix" result="effect1_dropShadow_58_25"/>
<feBlend mode="normal" in="SourceGraphic" in2="effect1_dropShadow_58_25" result="shape"/>
</filter>
</defs>
</svg>
