<svg width="203" height="15" viewBox="0 0 203 15" fill="none" xmlns="http://www.w3.org/2000/svg">
<path d="M10.1192 2.2L5.90522 9.466L1.64922 2.2H0.795219V12H1.78922V4.202L5.63922 10.754H6.12922L9.97922 4.16V12H10.9732V2.2H10.1192ZM16.5323 4.58C15.3703 4.58 14.2783 4.944 13.5363 5.574L13.9843 6.316C14.5863 5.784 15.4823 5.448 16.4343 5.448C17.8063 5.448 18.5203 6.134 18.5203 7.394V7.842H16.1823C14.0683 7.842 13.3403 8.794 13.3403 9.928C13.3403 11.202 14.3623 12.07 16.0283 12.07C17.2463 12.07 18.1143 11.608 18.5623 10.852V12H19.5143V7.436C19.5143 5.532 18.4363 4.58 16.5323 4.58ZM16.1823 11.286C15.0063 11.286 14.3203 10.754 14.3203 9.9C14.3203 9.144 14.7823 8.584 16.2103 8.584H18.5203V9.788C18.1283 10.754 17.3023 11.286 16.1823 11.286ZM27.9675 1.612V6.036C27.3515 5.084 26.3435 4.58 25.1675 4.58C23.0675 4.58 21.4995 6.092 21.4995 8.318C21.4995 10.544 23.0675 12.07 25.1675 12.07C26.3855 12.07 27.4075 11.538 28.0095 10.544V12H28.9615V1.612H27.9675ZM25.2515 11.188C23.6835 11.188 22.5075 10.04 22.5075 8.318C22.5075 6.596 23.6835 5.448 25.2515 5.448C26.8055 5.448 27.9815 6.596 27.9815 8.318C27.9815 10.04 26.8055 11.188 25.2515 11.188ZM38.1558 8.318C38.1558 6.106 36.6578 4.58 34.5858 4.58C32.5138 4.58 30.9878 6.134 30.9878 8.318C30.9878 10.502 32.5558 12.07 34.8518 12.07C36.0138 12.07 37.0358 11.65 37.6938 10.866L37.1338 10.222C36.5738 10.866 35.7758 11.188 34.8798 11.188C33.2698 11.188 32.0938 10.166 31.9818 8.626H38.1418C38.1418 8.514 38.1558 8.402 38.1558 8.318ZM34.5858 5.434C36.0278 5.434 37.0778 6.442 37.2038 7.884H31.9818C32.1078 6.442 33.1578 5.434 34.5858 5.434ZM53.741 4.636L51.403 10.894L49.051 4.636H48.197L45.831 10.894L43.521 4.636H42.569L45.341 12H46.279L48.603 5.966L50.927 12H51.865L54.651 4.636H53.741ZM56.6517 3.026C57.0717 3.026 57.3797 2.704 57.3797 2.298C57.3797 1.92 57.0577 1.612 56.6517 1.612C56.2457 1.612 55.9237 1.934 55.9237 2.312C55.9237 2.704 56.2457 3.026 56.6517 3.026ZM56.1477 12H57.1417V4.636H56.1477V12ZM63.4355 10.838C63.1555 11.09 62.7495 11.216 62.3435 11.216C61.5175 11.216 61.0695 10.74 61.0695 9.872V5.476H63.3095V4.636H61.0695V3.026H60.0755V4.636H58.7595V5.476H60.0755V9.928C60.0755 11.286 60.8455 12.07 62.2315 12.07C62.8055 12.07 63.3935 11.902 63.7855 11.552L63.4355 10.838ZM69.347 4.58C68.101 4.58 67.135 5.07 66.589 5.924V1.612H65.595V12H66.589V8.136C66.589 6.456 67.583 5.476 69.165 5.476C70.565 5.476 71.377 6.274 71.377 7.828V12H72.371V7.73C72.371 5.616 71.139 4.58 69.347 4.58ZM84.4177 4.188L78.3277 6.638V7.562L84.4177 9.998V9.13L79.2657 7.1L84.4177 5.07V4.188ZM85.0504 13.4H85.9604L90.5804 0.211999H89.6704L85.0504 13.4ZM91.0698 4.188V5.07L96.2218 7.1L91.0698 9.13V9.998L97.1598 7.562V6.638L91.0698 4.188ZM105.769 4.58C104.607 4.58 103.515 4.944 102.773 5.574L103.221 6.316C103.823 5.784 104.719 5.448 105.671 5.448C107.043 5.448 107.757 6.134 107.757 7.394V7.842H105.419C103.305 7.842 102.577 8.794 102.577 9.928C102.577 11.202 103.599 12.07 105.265 12.07C106.483 12.07 107.351 11.608 107.799 10.852V12H108.751V7.436C108.751 5.532 107.673 4.58 105.769 4.58ZM105.419 11.286C104.243 11.286 103.557 10.754 103.557 9.9C103.557 9.144 104.019 8.584 105.447 8.584H107.757V9.788C107.365 10.754 106.539 11.286 105.419 11.286ZM115.202 4.58C113.928 4.58 112.934 5.098 112.402 5.994V4.636H111.45V12H112.444V8.136C112.444 6.456 113.438 5.476 115.02 5.476C116.42 5.476 117.232 6.274 117.232 7.828V12H118.226V7.73C118.226 5.616 116.994 4.58 115.202 4.58ZM126.678 1.612V6.036C126.062 5.084 125.054 4.58 123.878 4.58C121.778 4.58 120.21 6.092 120.21 8.318C120.21 10.544 121.778 12.07 123.878 12.07C125.096 12.07 126.118 11.538 126.72 10.544V12H127.672V1.612H126.678ZM123.962 11.188C122.394 11.188 121.218 10.04 121.218 8.318C121.218 6.596 122.394 5.448 123.962 5.448C125.516 5.448 126.692 6.596 126.692 8.318C126.692 10.04 125.516 11.188 123.962 11.188ZM159.883 4.58C158.707 4.58 157.699 5.084 157.083 6.036V1.612H156.089V12H157.041V10.544C157.643 11.538 158.665 12.07 159.883 12.07C161.983 12.07 163.551 10.544 163.551 8.318C163.551 6.092 161.983 4.58 159.883 4.58ZM159.813 11.188C158.245 11.188 157.069 10.04 157.069 8.318C157.069 6.596 158.245 5.448 159.813 5.448C161.367 5.448 162.557 6.596 162.557 8.318C162.557 10.04 161.367 11.188 159.813 11.188ZM170.58 4.636L167.808 10.894L165.036 4.636H164L167.29 11.986L166.968 12.7C166.548 13.624 166.1 13.932 165.442 13.932C164.91 13.932 164.462 13.736 164.098 13.372L163.636 14.114C164.084 14.562 164.742 14.786 165.428 14.786C166.478 14.786 167.262 14.324 167.878 12.882L171.56 4.636H170.58ZM181.09 12.168C182.798 12.168 184.212 11.552 185.136 10.418L183.68 9.074C183.022 9.844 182.196 10.236 181.216 10.236C179.382 10.236 178.08 8.948 178.08 7.1C178.08 5.252 179.382 3.964 181.216 3.964C182.196 3.964 183.022 4.356 183.68 5.112L185.136 3.768C184.212 2.648 182.798 2.032 181.104 2.032C178.052 2.032 175.784 4.146 175.784 7.1C175.784 10.054 178.052 12.168 181.09 12.168ZM186.668 12H188.936V2.2H186.668V12ZM193.292 12H195.56V4.048H198.696V2.2H190.156V4.048H193.292V12ZM200.69 3.418C201.502 3.418 202.048 2.886 202.048 2.158C202.048 1.486 201.502 0.981999 200.69 0.981999C199.878 0.981999 199.332 1.514 199.332 2.2C199.332 2.886 199.878 3.418 200.69 3.418ZM199.598 12H201.782V4.468H199.598V12Z" fill="black"/>
</svg>
