<svg width="175" height="28" viewBox="0 0 175 28" fill="none" xmlns="http://www.w3.org/2000/svg">
<path d="M53.52 21.104H54.608C53.344 18.912 52.784 16.464 52.784 13.616C52.784 10.768 53.344 8.32 54.608 6.128H53.52C52.336 8.032 51.664 10.672 51.664 13.616C51.664 16.56 52.336 19.168 53.52 21.104ZM62.5136 12.128C63.6656 11.68 64.3056 10.832 64.3056 9.664C64.3056 7.84 62.7216 6.704 60.3536 6.704C57.9856 6.704 56.4336 7.84 56.4336 9.664C56.4336 10.832 57.0576 11.68 58.1936 12.128C56.8016 12.592 56.0336 13.536 56.0336 14.88C56.0336 16.864 57.6656 18.096 60.3536 18.096C63.0256 18.096 64.7056 16.864 64.7056 14.88C64.7056 13.552 63.9216 12.592 62.5136 12.128ZM57.5856 9.696C57.5856 8.448 58.6576 7.68 60.3536 7.68C62.0336 7.68 63.1376 8.448 63.1376 9.712C63.1376 10.928 62.0976 11.712 60.3536 11.712C58.6096 11.712 57.5856 10.928 57.5856 9.696ZM60.3536 17.12C58.3696 17.12 57.2016 16.256 57.2016 14.864C57.2016 13.488 58.3696 12.624 60.3536 12.624C62.3376 12.624 63.5216 13.488 63.5216 14.864C63.5216 16.256 62.3376 17.12 60.3536 17.12ZM65.6128 6.8V7.824H68.2528V18H69.4048V6.8H65.6128ZM72.978 21.104C74.178 19.168 74.85 16.56 74.85 13.616C74.85 10.672 74.178 8.032 72.978 6.128H71.89C73.17 8.32 73.73 10.768 73.73 13.616C73.73 16.464 73.17 18.912 71.89 21.104H72.978ZM85.0231 6.704C82.8471 6.704 81.1991 8.048 81.1991 10.144C81.1991 12.192 82.7511 13.504 84.9751 13.504C86.5271 13.504 87.8391 12.816 88.3991 11.584C88.4311 11.92 88.4471 12.24 88.4471 12.496C88.4471 15.536 86.8951 17.088 84.4791 17.088C83.6471 17.088 82.8791 16.944 82.3031 16.56L81.8391 17.488C82.5431 17.92 83.4871 18.096 84.4951 18.096C87.5351 18.096 89.6151 16.112 89.6151 12.304C89.6151 8.768 87.9991 6.704 85.0231 6.704ZM85.1511 12.528C83.4231 12.528 82.3351 11.584 82.3351 10.112C82.3351 8.624 83.4551 7.68 85.0711 7.68C87.0071 7.68 88.0311 8.848 88.0311 10.08C88.0311 11.472 86.8631 12.528 85.1511 12.528ZM101.889 12.128C103.041 11.68 103.681 10.832 103.681 9.664C103.681 7.84 102.097 6.704 99.7286 6.704C97.3606 6.704 95.8086 7.84 95.8086 9.664C95.8086 10.832 96.4326 11.68 97.5686 12.128C96.1766 12.592 95.4086 13.536 95.4086 14.88C95.4086 16.864 97.0406 18.096 99.7286 18.096C102.401 18.096 104.081 16.864 104.081 14.88C104.081 13.552 103.297 12.592 101.889 12.128ZM96.9606 9.696C96.9606 8.448 98.0326 7.68 99.7286 7.68C101.409 7.68 102.513 8.448 102.513 9.712C102.513 10.928 101.473 11.712 99.7286 11.712C97.9846 11.712 96.9606 10.928 96.9606 9.696ZM99.7286 17.12C97.7446 17.12 96.5766 16.256 96.5766 14.864C96.5766 13.488 97.7446 12.624 99.7286 12.624C101.713 12.624 102.897 13.488 102.897 14.864C102.897 16.256 101.713 17.12 99.7286 17.12ZM105.356 6.8V9.92H106.492V7.824H112.252L107.644 18H108.892L113.58 7.616V6.8H105.356ZM118.586 6.704C116.41 6.704 114.762 8.048 114.762 10.144C114.762 12.192 116.314 13.504 118.538 13.504C120.09 13.504 121.402 12.816 121.962 11.584C121.994 11.92 122.01 12.24 122.01 12.496C122.01 15.536 120.458 17.088 118.042 17.088C117.21 17.088 116.442 16.944 115.866 16.56L115.402 17.488C116.106 17.92 117.05 18.096 118.058 18.096C121.098 18.096 123.178 16.112 123.178 12.304C123.178 8.768 121.562 6.704 118.586 6.704ZM118.714 12.528C116.986 12.528 115.898 11.584 115.898 10.112C115.898 8.624 117.018 7.68 118.634 7.68C120.57 7.68 121.594 8.848 121.594 10.08C121.594 11.472 120.426 12.528 118.714 12.528ZM129.488 11.296C127.936 11.296 126.624 11.984 126.064 13.216C126.032 12.88 126.016 12.56 126.016 12.304C126.016 9.264 127.568 7.712 129.984 7.712C130.816 7.712 131.584 7.856 132.16 8.24L132.624 7.312C131.92 6.88 130.976 6.704 129.968 6.704C126.928 6.704 124.848 8.688 124.848 12.496C124.848 16.032 126.464 18.096 129.44 18.096C131.616 18.096 133.264 16.752 133.264 14.656C133.264 12.608 131.712 11.296 129.488 11.296ZM129.392 17.12C127.456 17.12 126.432 15.952 126.432 14.72C126.432 13.328 127.6 12.272 129.312 12.272C131.04 12.272 132.128 13.216 132.128 14.688C132.128 16.176 131.008 17.12 129.392 17.12ZM145.201 12.128C146.353 11.68 146.993 10.832 146.993 9.664C146.993 7.84 145.409 6.704 143.041 6.704C140.673 6.704 139.121 7.84 139.121 9.664C139.121 10.832 139.745 11.68 140.881 12.128C139.489 12.592 138.721 13.536 138.721 14.88C138.721 16.864 140.353 18.096 143.041 18.096C145.713 18.096 147.393 16.864 147.393 14.88C147.393 13.552 146.609 12.592 145.201 12.128ZM140.273 9.696C140.273 8.448 141.345 7.68 143.041 7.68C144.721 7.68 145.825 8.448 145.825 9.712C145.825 10.928 144.785 11.712 143.041 11.712C141.297 11.712 140.273 10.928 140.273 9.696ZM143.041 17.12C141.057 17.12 139.889 16.256 139.889 14.864C139.889 13.488 141.057 12.624 143.041 12.624C145.025 12.624 146.209 13.488 146.209 14.864C146.209 16.256 145.025 17.12 143.041 17.12ZM153.452 18.096C156.044 18.096 157.932 15.968 157.932 12.4C157.932 8.832 156.044 6.704 153.452 6.704C150.86 6.704 148.988 8.832 148.988 12.4C148.988 15.968 150.86 18.096 153.452 18.096ZM153.452 17.04C151.5 17.04 150.156 15.392 150.156 12.4C150.156 9.408 151.5 7.76 153.452 7.76C155.404 7.76 156.748 9.408 156.748 12.4C156.748 15.392 155.404 17.04 153.452 17.04ZM158.863 6.8V7.824H161.503V18H162.655V6.8H158.863ZM174.852 14.032H172.612V11.44H171.492V14.032H166.628L172.356 6.8H171.076L165.14 14.224V15.056H171.46V18H172.612V15.056H174.852V14.032Z" fill="white"/>
<path d="M5.47143 18.0158C8.1446 21.2113 11.3625 23.7272 15.0353 25.5074C16.4337 26.1701 18.3038 26.9563 20.3873 27.0911C20.5164 27.0967 20.64 27.1024 20.7691 27.1024C22.1675 27.1024 23.2907 26.6194 24.2061 25.6254C24.2117 25.6198 24.2229 25.6085 24.2285 25.5973C24.5543 25.2042 24.9249 24.8504 25.3124 24.4741C25.5764 24.2214 25.8459 23.9574 26.1043 23.6879C27.3004 22.4411 27.3004 20.8575 26.093 19.65L22.7179 16.2749C22.145 15.6796 21.4599 15.3651 20.7411 15.3651C20.0222 15.3651 19.3315 15.6796 18.7418 16.2693L16.7313 18.2798C16.546 18.1731 16.355 18.0776 16.1753 17.9877C15.9507 17.8754 15.7429 17.7687 15.5576 17.6508C13.7268 16.4883 12.0645 14.972 10.4752 13.0233C9.67212 12.0068 9.133 11.1532 8.75673 10.2827C9.28463 9.80537 9.77883 9.30555 10.2562 8.81697C10.4247 8.64288 10.5987 8.46878 10.7728 8.29469C11.3794 7.68817 11.7051 6.98618 11.7051 6.27296C11.7051 5.55974 11.385 4.85776 10.7728 4.25124L9.0993 2.5777C8.90275 2.38114 8.71742 2.1902 8.52648 1.99365C8.15583 1.61176 7.76833 1.21865 7.38645 0.864849C6.80801 0.297643 6.12849 0 5.40965 0C4.69643 0 4.01129 0.297643 3.41039 0.870465L1.31004 2.97081C0.546281 3.73458 0.113856 4.6612 0.0240019 5.73384C-0.0827003 7.07604 0.1644 8.50248 0.804612 10.2266C1.7874 12.8941 3.26999 15.3707 5.47143 18.0158ZM1.39428 5.85177C1.46167 5.10486 1.74808 4.48149 2.28721 3.94236L4.37633 1.85325C4.70205 1.53876 5.06147 1.3759 5.40965 1.3759C5.75222 1.3759 6.10041 1.53876 6.42052 1.86448C6.79678 2.21267 7.15058 2.5777 7.53246 2.9652C7.72341 3.16175 7.91996 3.35831 8.11652 3.56048L9.79006 5.23402C10.1382 5.58221 10.318 5.93601 10.318 6.2842C10.318 6.63238 10.1382 6.98618 9.79006 7.33437C9.61596 7.50846 9.44187 7.68817 9.26778 7.86226C8.7455 8.39016 8.25692 8.88998 7.71779 9.36733C7.70656 9.37856 7.70094 9.38417 7.68971 9.39541C7.22359 9.86153 7.2966 10.3052 7.40892 10.6421C7.41453 10.659 7.42015 10.6702 7.42576 10.6871C7.85819 11.726 8.45909 12.7144 9.39694 13.8937C11.0817 15.9716 12.8563 17.5834 14.8107 18.8245C15.0522 18.9818 15.3105 19.1053 15.552 19.2289C15.7766 19.3412 15.9844 19.4479 16.1697 19.5658C16.1922 19.577 16.209 19.5883 16.2315 19.5995C16.4168 19.695 16.5965 19.7399 16.7762 19.7399C17.2255 19.7399 17.5175 19.4535 17.613 19.358L19.7134 17.2577C20.0391 16.9319 20.3929 16.7579 20.7411 16.7579C21.1679 16.7579 21.5161 17.0218 21.7351 17.2577L25.1215 20.6384C25.7954 21.3124 25.7898 22.0424 25.1046 22.7556C24.8688 23.0084 24.6217 23.2498 24.3577 23.5026C23.9646 23.8844 23.5546 24.2776 23.184 24.7212C22.5382 25.4176 21.7688 25.7433 20.7748 25.7433C20.6793 25.7433 20.5782 25.7377 20.4827 25.7321C18.6407 25.6141 16.9279 24.8953 15.6418 24.2832C12.1487 22.5928 9.08245 20.1948 6.53845 17.151C4.44372 14.6294 3.03413 12.282 2.10189 9.76606C1.52345 8.22168 1.30443 6.98057 1.39428 5.85177Z" fill="white"/>
</svg>
