<svg width="93" height="78" viewBox="0 0 93 78" fill="none" xmlns="http://www.w3.org/2000/svg">
<g filter="url(#filter0_d_58_110)">
<path d="M67.5489 0C60.2201 0 53.7461 3.63942 49.8773 9.18494C49.8773 9.18494 48.571 11.1186 46.4991 11.1186C44.429 11.1186 43.1227 9.18494 43.1227 9.18494C39.2521 3.63942 32.7818 0 25.4512 0C13.6032 0 4 9.49925 4 21.2226C4 23.9908 4.55003 26.6247 5.52373 29.0492C11.5332 47.5073 38.4103 69.2078 46.4991 70C54.5897 69.2078 81.4631 47.5073 87.4763 29.0492C88.45 26.6266 89 23.9908 89 21.2226C89 9.49925 79.3968 0 67.5489 0Z" fill="#E5E5E5"/>
</g>
<defs>
<filter id="filter0_d_58_110" x="0" y="0" width="93" height="78" filterUnits="userSpaceOnUse" color-interpolation-filters="sRGB">
<feFlood flood-opacity="0" result="BackgroundImageFix"/>
<feColorMatrix in="SourceAlpha" type="matrix" values="0 0 0 0 0 0 0 0 0 0 0 0 0 0 0 0 0 0 127 0" result="hardAlpha"/>
<feOffset dy="4"/>
<feGaussianBlur stdDeviation="2"/>
<feComposite in2="hardAlpha" operator="out"/>
<feColorMatrix type="matrix" values="0 0 0 0 0 0 0 0 0 0 0 0 0 0 0 0 0 0 0.25 0"/>
<feBlend mode="normal" in2="BackgroundImageFix" result="effect1_dropShadow_58_110"/>
<feBlend mode="normal" in="SourceGraphic" in2="effect1_dropShadow_58_110" result="shape"/>
</filter>
</defs>
</svg>
